
<svg viewBox="0 0 500 300" xmlns="http://www.w3.org/2000/svg">
  <defs>
    <linearGradient id="_logo-1" x1="0" y1="0" x2="1" y2="0" gradientUnits="userSpaceOnUse" gradientTransform="matrix(88.8022,0,0,59.214,483.792,255.644)">
      <stop offset="0" style="stop-color:rgb(142,151,117);stop-opacity:1"/>
      <stop offset="0.36" style="stop-color:rgb(84,91,70);stop-opacity:1"/>
      <stop offset="1" style="stop-color:rgb(74,80,61);stop-opacity:1"/>
    </linearGradient>
    <linearGradient id="_logo-2" x1="0" y1="0" x2="1" y2="0" gradientUnits="userSpaceOnUse" gradientTransform="matrix(171.681,0,0,169.028,585.646,222.896)">
      <stop offset="0" style="stop-color:rgb(142,151,117);stop-opacity:1"/>
      <stop offset="0.36" style="stop-color:rgb(84,91,70);stop-opacity:1"/>
      <stop offset="1" style="stop-color:rgb(74,80,61);stop-opacity:1"/>
    </linearGradient>
    <linearGradient id="_logo-3" x1="0" y1="0" x2="1" y2="0" gradientUnits="userSpaceOnUse" gradientTransform="matrix(106.571,0,0,119.998,48.077,139.307)">
      <stop offset="0" style="stop-color:rgb(74,80,61);stop-opacity:1"/>
      <stop offset="0.46" style="stop-color:rgb(87,93,72);stop-opacity:1"/>
      <stop offset="0.99" style="stop-color:rgb(120,128,99);stop-opacity:1"/>
      <stop offset="1" style="stop-color:rgb(123,131,101);stop-opacity:1"/>
      <stop offset="1" style="stop-color:rgb(131,140,108);stop-opacity:1"/>
      <stop offset="1" style="stop-color:rgb(142,151,117);stop-opacity:1"/>
    </linearGradient>
  </defs>
  <g style="" transform="matrix(1.3186110258102417, 0, 0, 1.3186110258102417, -71.9843215942383, -171.7230682373047)">
    <g transform="matrix(-0.166184, -0.30958, 0.314996, -0.169091, 261.958832, 470.094788)">
      <path d="M541.637,256.839C546.622,255.1 549.468,232.862 545.669,228.514C541.871,224.167 542.16,226.401 540.458,228.716C539.43,230.114 536.245,231.46 533.441,231.957C531.599,232.284 529.921,232.244 529.129,231.612C527.129,230.017 520.974,226.888 514.685,227.142C508.396,227.396 507.11,227.425 505.593,227.543C504.076,227.661 505.124,228.703 507.134,230.222C509.144,231.742 513.889,238.228 512.65,240.213C511.411,242.198 507.575,244.458 498.813,252.211C490.052,259.963 490.522,262.702 486.352,265.349C482.182,267.997 483.97,267.003 485.681,267.338C487.393,267.672 488.78,268.947 493.35,270.509C497.919,272.071 504.207,273.86 510.888,272.742C517.569,271.625 521.51,269.627 524.732,269.627C527.954,269.627 533.044,270.03 534.964,271.654C536.884,273.278 541.015,278.317 542.54,279.813C544.064,281.308 546.073,285.161 549.159,285.242C552.245,285.323 553.237,284.875 554.544,283.673C555.851,282.47 559.805,272.932 561.238,271.836C562.67,270.74 563.427,271.096 565.618,271.9C567.81,272.703 568.3,273.963 570.172,273.998C572.044,274.033 573.299,272.061 572.16,271.146C571.021,270.232 571.701,267.974 566.694,263.579C561.687,259.184 555.905,256.99 552.409,256.99C548.912,256.99 543.316,258.09 541.622,258.09C539.928,258.09 536.652,258.578 541.637,256.839Z" style="fill:url(#_logo-1);"/>
      <g transform="matrix(1.83711,0.389231,-0.321465,1.51727,295.764,-597.449)">
        <path d="M237.098,531.356C235.118,531.436 233.283,529.324 231.533,526.531C229.783,523.736 228.209,520.195 226.85,516.896C224.787,511.891 223.246,507.424 222.736,506.603C222.652,506.454 222.482,506.415 222.356,506.517C222.23,506.618 222.196,506.821 222.281,506.97C222.722,507.836 223.82,512.46 225.562,517.591C226.759,521.121 228.275,524.863 229.964,527.862C232.061,531.586 234.559,534.058 237.107,534.095C237.741,534.087 238.254,533.467 238.252,532.711C238.25,531.955 237.733,531.348 237.098,531.356Z" style="fill:rgb(142,151,117);"/>
      </g>
    </g>
    <path d="M 93.207 343.46 C 115.111 331.674 135.967 323.931 154.284 318.924 C 186.489 310.119 210.753 309.739 218.821 310.659 C 228.201 311.725 250.527 312.515 263.948 300.658 C 270.853 294.559 275.676 285.243 275.24 270.927 C 274.769 255.459 269.144 246.92 261.425 241.812 C 254.967 237.539 246.858 235.75 238.745 234.521 C 231.137 233.369 223.545 232.735 217.764 230.268 C 211.06 227.406 207.542 221.787 205.192 215.185 C 201.463 204.713 200.546 191.874 196.945 181.59 C 194.356 174.215 188.362 170.526 180.376 169.096 C 167.914 166.865 150.303 170.337 136.299 170.195 C 128.161 170.117 122.457 167.145 118.716 163.092 C 113.432 157.367 111.948 149.611 113.014 145.219 C 113.856 141.743 115.577 139.524 117.969 138.498 C 120.462 137.429 123.563 137.591 126.898 138.684 C 129.715 139.607 131.486 140.368 132.328 141.385 C 133.307 142.568 132.527 143.93 131.185 146.11 C 130.246 147.638 129.042 148.197 127.882 148.17 C 126.259 148.132 124.688 147.229 124.504 146.559 C 124.324 145.884 123.629 145.482 122.953 145.663 C 122.278 145.843 121.877 146.538 122.057 147.213 C 122.372 148.427 124.864 150.652 127.792 150.783 C 129.745 150.87 131.866 150.118 133.517 147.589 C 135.211 144.994 135.862 142.997 135.511 141.37 C 135.068 139.312 132.885 137.497 127.914 135.719 C 123.75 134.23 119.843 134.083 116.667 135.346 C 113.335 136.67 110.731 139.545 109.443 144.303 C 108.028 149.531 109.402 158.917 115.561 165.932 C 119.882 170.854 126.539 174.622 136.198 174.942 C 149.883 175.388 167.171 172.286 179.307 174.725 C 184.973 175.864 189.428 178.264 191.167 183.553 C 195.243 195.898 195.543 211.747 201.205 223.154 C 204.136 229.06 208.414 233.849 214.941 236.749 C 221.167 239.516 229.356 240.461 237.584 241.829 C 244.569 242.991 251.6 244.457 257.123 248.22 C 263.056 252.262 266.928 259.119 267.138 271.121 C 267.391 285.562 261.278 293.556 253.13 297.758 C 241.666 303.669 226.733 302.558 219.896 301.695 C 211.404 300.625 185.805 300.554 151.75 309.43 C 132.728 314.386 111.046 322.144 88.227 334.073 C 85.637 335.447 84.65 338.666 86.023 341.256 C 87.397 343.846 90.616 344.834 93.207 343.46 Z" style="fill:rgb(108,116,89);"/>
    <path d="M 259.822 250.667 C 271.964 261.241 287.27 267.537 301.772 270.361 C 314.033 272.75 325.688 272.694 334.283 270.79 C 340.516 269.41 345.208 267.02 347.688 264.041 L 350.953 260.27 C 354.272 256.636 356.836 254.576 360.058 253.636 C 363.132 252.741 366.728 252.785 371.891 253.235 C 377.2 253.675 379.913 254.259 381.583 255.111 C 383.846 256.266 384.206 257.809 386.511 259.64 C 388.994 261.599 391.048 262.081 392.856 261.687 C 394.722 261.281 396.394 259.902 398.019 257.945 C 399.393 256.293 399.976 255.051 399.999 253.798 C 400.028 252.246 399.15 250.599 397.448 247.919 C 397.185 247.481 396.617 247.339 396.18 247.6 C 395.742 247.863 395.6 248.432 395.862 248.87 C 397.133 251.121 397.941 252.438 397.846 253.698 C 397.783 254.545 397.225 255.3 396.227 256.363 C 394.948 257.726 393.741 258.787 392.355 259.003 C 391.193 259.184 389.981 258.629 388.479 257.291 C 386.045 255.139 385.655 253.495 383.227 252.09 C 381.375 251.019 378.347 250.079 372.326 249.258 C 366.488 248.486 362.402 248.352 358.871 249.226 C 354.869 250.216 351.533 252.492 347.293 256.799 L 343.734 260.642 C 341.753 262.872 337.971 264.341 333.145 265.257 C 325.149 266.774 314.383 266.469 303.114 263.948 C 289.855 260.982 275.896 254.908 264.992 244.888 C 263.398 243.46 260.944 243.597 259.518 245.192 C 258.091 246.787 258.227 249.24 259.822 250.667 Z" style="fill: rgb(108, 116, 89);"/>
    <g transform="matrix(-0.000628, -0.746619, 0.746619, -0.000628, -104.06131, 573.302307)">
      <g transform="matrix(0.112732,-0.538903,0.505373,0.105718,347.432,570.669)">
        <path d="M579.712,283.003C583.124,276.449 591.953,264.349 606.862,255.135C614.722,250.278 624.13,246.061 635.512,244.012C636.075,243.945 636.482,243.403 636.419,242.802C636.356,242.201 635.848,241.768 635.284,241.835C624.57,242.436 615.226,244.869 607.229,248.429C600.685,251.341 595.114,255.043 590.377,258.808C578.293,268.411 571.933,279.07 570.507,282.851C569.487,285.552 570.29,287.436 570.666,288.115C571.575,289.757 573.037,290.539 575.119,290.24C575.758,290.148 577.275,289.588 579.001,287.46C579.989,286.165 580.206,284.468 579.712,283.003ZM572.502,281.437C572.438,281.509 572.377,281.584 572.318,281.662C572.202,281.823 572.121,282.146 572.035,282.055C571.708,281.709 572.042,281.535 572.502,281.437Z" style="fill:rgb(142,151,117);"/>
      </g>
      <path d="M541.637,256.839C546.622,255.1 549.468,232.862 545.669,228.514C541.871,224.167 542.16,226.401 540.458,228.716C539.43,230.114 536.245,231.46 533.441,231.957C531.599,232.284 529.921,232.244 529.129,231.612C527.129,230.017 520.974,226.888 514.685,227.142C508.396,227.396 507.11,227.425 505.593,227.543C504.076,227.661 505.124,228.703 507.134,230.222C509.144,231.742 513.889,238.228 512.65,240.213C511.411,242.198 507.575,244.458 498.813,252.211C490.052,259.963 490.522,262.702 486.352,265.349C482.182,267.997 483.97,267.003 485.681,267.338C487.393,267.672 488.78,268.947 493.35,270.509C497.919,272.071 504.207,273.86 510.888,272.742C517.569,271.625 521.51,269.627 524.732,269.627C527.954,269.627 533.044,270.03 534.964,271.654C536.884,273.278 541.015,278.317 542.54,279.813C544.064,281.308 546.073,285.161 549.159,285.242C552.245,285.323 553.237,284.875 554.544,283.673C555.851,282.47 559.805,272.932 561.238,271.836C562.67,270.74 563.427,271.096 565.618,271.9C567.81,272.703 568.3,273.963 570.172,273.998C572.044,274.033 573.299,272.061 572.16,271.146C571.021,270.232 571.701,267.974 566.694,263.579C561.687,259.184 555.905,256.99 552.409,256.99C548.912,256.99 543.316,258.09 541.622,258.09C539.928,258.09 536.652,258.578 541.637,256.839Z" style="fill:url(#_logo-1);"/>
      <path d="M541.637,256.839C544.195,255.968 546.233,249.73 547.112,243.252C547.96,237 547.697,230.531 545.836,228.369C544.403,226.706 543.516,225.983 542.901,225.828C542.383,225.696 542.009,225.896 541.664,226.318C541.257,226.819 540.891,227.682 540.239,228.556C539.784,229.167 538.888,229.757 537.798,230.269C536.479,230.889 534.876,231.386 533.385,231.64C532.453,231.799 531.566,231.863 530.822,231.799C530.199,231.745 529.681,231.607 529.347,231.338C528.175,230.39 525.589,228.906 522.374,227.87C520.035,227.116 517.365,226.6 514.667,226.691C510.664,226.83 508.687,226.889 507.387,226.942C506.637,226.972 506.111,227.001 505.554,227.041C504.939,227.086 504.617,227.309 504.479,227.532C504.323,227.783 504.305,228.124 504.545,228.53C504.843,229.034 505.678,229.771 506.817,230.642C507.901,231.471 509.795,233.814 511.053,236.048C511.639,237.09 512.088,238.105 512.228,238.928C512.295,239.323 512.302,239.661 512.151,239.901C511.711,240.599 510.922,241.322 509.688,242.342C507.483,244.163 503.906,246.854 498.37,251.71C492.024,257.29 490.47,260.283 488.544,262.51C487.836,263.329 487.074,264.037 485.963,264.738C484.22,265.84 483.459,266.38 483.267,266.619C483.007,266.941 483.04,267.221 483.096,267.403C483.16,267.609 483.305,267.819 483.621,267.927C483.739,267.967 483.949,267.995 484.225,267.993C484.554,267.992 485.051,267.962 485.541,268.058C486.884,268.323 488.015,269.199 490.732,270.321C491.419,270.604 492.202,270.903 493.109,271.214C495.599,272.065 498.592,272.983 501.879,273.473C504.746,273.899 507.835,274 511.008,273.464C515.9,272.63 519.326,271.334 522.077,270.687C523.037,270.461 523.908,270.316 524.732,270.312C526.509,270.305 528.867,270.419 530.925,270.804C532.429,271.086 533.772,271.494 534.548,272.145C535.148,272.648 535.966,273.49 536.854,274.449C538.807,276.556 541.08,279.215 542.128,280.232C543.07,281.146 544.201,282.943 545.645,284.218C546.657,285.11 547.816,285.754 549.144,285.782C550.829,285.817 551.92,285.697 552.771,285.404C553.592,285.121 554.203,284.683 554.887,284.046C555.194,283.76 555.648,283.049 556.166,282.088C557.313,279.963 558.863,276.567 560.096,274.295C560.667,273.243 561.148,272.437 561.493,272.17C562.036,271.749 562.46,271.559 562.936,271.555C563.594,271.549 564.327,271.85 565.484,272.266C566.963,272.797 567.66,273.546 568.541,273.974C569.002,274.197 569.506,274.345 570.165,274.353C571.332,274.366 572.281,273.695 572.692,272.918C573.068,272.205 573.015,271.413 572.361,270.896C572.059,270.657 571.911,270.304 571.717,269.835C571.419,269.114 571.052,268.14 570.137,266.864C569.439,265.89 568.42,264.738 566.86,263.39C564.681,261.505 562.362,260.03 560.144,258.962C557.192,257.54 554.422,256.841 552.409,256.856C551.44,256.864 550.312,256.956 549.15,257.087C546.114,257.429 542.848,258.034 541.622,258.044C540.761,258.051 539.493,258.189 539.109,258.087C539.011,258.061 538.987,258.014 539.073,257.938C539.287,257.749 540.03,257.415 541.637,256.839L541.637,256.839ZM484.547,267.295C484.561,267.477 484.541,267.64 484.407,267.533C484.344,267.483 484.399,267.406 484.547,267.295ZM485.7,266.595C486.009,266.414 486.36,266.203 486.74,265.961C487.983,265.166 488.836,264.366 489.627,263.44C491.514,261.23 493.025,258.26 499.256,252.711C504.735,247.821 508.28,245.106 510.462,243.271C511.82,242.129 512.669,241.302 513.149,240.524C513.374,240.161 513.471,239.691 513.428,239.138C513.371,238.415 513.073,237.521 512.612,236.571C511.327,233.926 508.794,230.805 507.452,229.802C506.745,229.274 506.159,228.808 505.771,228.42C505.659,228.308 505.55,228.167 505.476,228.064C505.523,228.056 505.575,228.05 505.632,228.045C506.179,228 506.696,227.966 507.433,227.928C508.731,227.86 510.706,227.778 514.704,227.593C517.298,227.471 519.873,227.938 522.133,228.634C525.248,229.594 527.766,230.986 528.91,231.886C529.335,232.221 529.981,232.418 530.769,232.476C531.562,232.533 532.507,232.457 533.497,232.274C535.038,231.991 536.692,231.454 538.049,230.795C539.23,230.221 540.188,229.55 540.676,228.877C541.311,228.001 541.662,227.138 542.06,226.636C542.262,226.381 542.472,226.231 542.783,226.306C543.355,226.442 544.155,227.137 545.502,228.66C547.356,230.75 547.632,237.089 546.892,243.224C546.112,249.69 544.173,255.934 541.637,256.839L541.637,256.839C540.013,257.391 539.26,257.716 539.043,257.903C538.907,258.02 538.943,258.093 539.096,258.136C539.479,258.245 540.757,258.129 541.622,258.136C542.849,258.146 546.129,257.597 549.173,257.303C550.327,257.191 551.448,257.116 552.409,257.123C554.386,257.138 557.096,257.869 559.975,259.308C562.144,260.392 564.408,261.879 566.528,263.768C568.026,265.103 569.003,266.237 569.669,267.195C570.529,268.432 570.865,269.373 571.14,270.069C571.375,270.662 571.583,271.091 571.958,271.397C572.439,271.789 572.304,272.424 571.887,272.906C571.511,273.341 570.895,273.662 570.178,273.643C569.644,273.629 569.237,273.504 568.865,273.318C567.969,272.867 567.26,272.098 565.753,271.534C564.478,271.057 563.662,270.742 562.934,270.739C562.298,270.737 561.716,270.95 560.983,271.503C560.587,271.801 559.994,272.686 559.33,273.872C557.563,277.03 555.161,282.426 554.2,283.299C553.626,283.822 553.122,284.191 552.438,284.417C551.67,284.672 550.687,284.751 549.173,284.703C548.105,284.669 547.194,284.11 546.389,283.384C544.971,282.106 543.875,280.309 542.951,279.393C541.922,278.373 539.699,275.706 537.782,273.597C536.859,272.583 536.004,271.696 535.379,271.163C534.477,270.394 532.93,269.85 531.173,269.507C529.034,269.09 526.581,268.949 524.732,268.942C523.812,268.938 522.836,269.085 521.763,269.329C519.03,269.952 515.624,271.223 510.767,272.02C507.752,272.52 504.821,272.408 502.1,271.999C498.911,271.52 496.007,270.63 493.591,269.804C489.747,268.495 488.158,267.386 486.731,266.872C486.427,266.762 486.129,266.677 485.822,266.617L485.7,266.595Z" style="fill:rgb(250,242,218);"/>
      <g>
        <path d="M540.911,256.286C539.108,255.328 537.537,255.121 534.558,255.658C530.077,256.464 522.056,258.939 503.679,262.839C497.882,264.07 491.064,265.482 482.988,266.995C482.856,267.017 482.767,267.142 482.789,267.274C482.812,267.406 482.937,267.495 483.069,267.473C491.205,266.257 498.086,265.142 503.924,264.078C522.366,260.716 530.393,258.267 534.879,257.552C537.261,257.172 538.518,257.282 539.94,258.073C540.433,258.34 541.051,258.158 541.319,257.665C541.587,257.172 541.404,256.554 540.911,256.286Z" style="fill:rgb(142,151,117);"/>
        <path d="M541.169,256.486C533.753,248.763 527.516,245.591 517.726,237.186C514.903,234.762 511.761,231.929 508.223,228.393C508.131,228.296 507.977,228.292 507.88,228.384C507.784,228.476 507.78,228.63 507.872,228.727C511.241,232.46 514.219,235.497 516.957,238.046C526.336,246.778 532.542,249.992 539.682,257.873C540.065,258.283 540.709,258.305 541.119,257.923C541.529,257.54 541.552,256.896 541.169,256.486Z" style="fill:rgb(142,151,117);"/>
        <path d="M539.476,256.993C539.684,261.2 541.728,263.353 544.114,265.636C546.017,267.457 548.114,269.387 549.414,272.862C550.465,275.675 551.026,279.47 550.549,285.014C550.534,285.146 550.629,285.267 550.761,285.283C550.894,285.299 551.015,285.204 551.031,285.071C551.905,279.374 551.592,275.402 550.66,272.434C549.466,268.631 547.279,266.464 545.311,264.432C543.34,262.397 541.558,260.541 541.508,256.929C541.49,256.368 541.02,255.927 540.459,255.945C539.899,255.963 539.458,256.433 539.476,256.993Z" style="fill:rgb(142,151,117);"/>
        <path d="M540.4,257.509C545.311,260.789 547.197,261.178 549.481,261.703C550.947,262.041 552.583,262.442 555.426,263.797C557.22,264.652 559.477,265.886 562.473,267.686C564.429,268.861 566.702,270.259 569.349,271.977C569.459,272.054 569.61,272.027 569.687,271.918C569.764,271.808 569.737,271.657 569.627,271.58C567.099,269.671 564.936,268.089 563.046,266.793C560.115,264.784 557.866,263.442 556.081,262.496C549.1,258.797 549.282,261.396 541.558,255.838C541.096,255.519 540.463,255.634 540.143,256.095C539.823,256.556 539.938,257.19 540.4,257.509Z" style="fill:rgb(142,151,117);"/>
        <path d="M542.368,255.323C540.785,252.248 540.142,249.291 539.988,246.491C539.851,244.015 540.103,241.666 540.421,239.463C540.797,236.852 541.263,234.452 541.428,232.317C541.444,232.184 541.35,232.063 541.217,232.047C541.085,232.03 540.963,232.125 540.947,232.257C540.586,234.36 539.857,236.689 539.285,239.255C538.781,241.518 538.405,243.953 538.41,246.536C538.416,249.572 538.984,252.803 540.539,256.211C540.784,256.716 541.392,256.927 541.897,256.682C542.402,256.437 542.613,255.828 542.368,255.323Z" style="fill:rgb(142,151,117);"/>
        <path d="M528.25,257.629C526.936,259.991 524.736,261.76 523.573,264.043C522.783,265.592 522.427,267.334 523.015,269.539C523.039,269.671 523.166,269.758 523.297,269.734C523.429,269.709 523.516,269.583 523.492,269.451C523.281,267.441 523.845,265.988 524.708,264.713C526.154,262.573 528.449,260.949 529.981,258.696C530.275,258.218 530.126,257.591 529.649,257.297C529.171,257.003 528.544,257.152 528.25,257.629Z" style="fill:rgb(142,151,117);"/>
        <path d="M530.713,256.437C526.508,255.087 522.524,254.142 518.568,252.752C516.033,251.862 513.509,250.815 510.965,249.257C510.854,249.181 510.704,249.21 510.628,249.321C510.553,249.431 510.581,249.582 510.692,249.657C513.126,251.499 515.568,252.869 518.083,253.978C521.932,255.674 525.902,256.765 530.037,258.355C530.567,258.541 531.148,258.263 531.334,257.734C531.521,257.205 531.242,256.624 530.713,256.437Z" style="fill:rgb(142,151,117);"/>
      </g>
    </g>
    <g transform="matrix(0.746619, 0, 0, 0.746619, -45.532814, 375.153839)">
      <g transform="matrix(0.372416,0,0,0.388704,344.793,-274.865)">
        <path d="M639.065,240.161C620.634,246.2 600.523,234.799 594.634,229.202C588.744,223.606 586.48,213.074 585.799,208.334C585.118,203.595 586.927,203.648 586.927,203.648C586.927,203.648 604.543,197.08 607.632,193.937C610.721,190.794 611.637,181.993 616.752,171.17C621.866,160.348 631.618,157.118 635.59,153.284C639.562,149.449 642.301,147.162 644.014,141.324C645.727,135.486 645.847,139.407 649.793,143.833C653.739,148.259 661.477,158.786 660.505,169.312C659.534,179.839 654.887,184.752 658.558,187.114C662.229,189.475 663.853,188.054 666.864,185.117C669.875,182.18 676.002,177.303 681.128,174.482C686.254,171.662 688.907,167.987 693.25,168.95C697.593,169.914 711.403,182.977 728.57,183.155C745.737,183.332 746.954,189.47 752.643,190.019C758.332,190.569 757.394,190.15 757.052,192.173C756.71,194.196 758.738,193.556 754.947,196.572C751.157,199.588 741.779,205.341 739.625,211.562C737.472,217.782 731.901,230.584 730.257,235.911C728.613,241.238 715.47,251.084 711.687,251.179C707.903,251.274 695.19,250.83 695.876,255.236C696.562,259.642 701.267,266.484 703.425,269.52C705.583,272.555 709.923,287.186 709.923,292.158C709.923,297.129 708.08,296.328 710.184,299.328C712.287,302.329 709.031,299.49 699.434,300.45C689.837,301.41 690.293,304.286 682.828,304.286C675.363,304.286 666.621,300.095 661.81,299.624C656.999,299.153 656.561,298.113 653.053,300.182C649.546,302.25 648.873,306.465 644.669,307.128C640.465,307.791 641.497,307.521 636.975,303.71C632.454,299.899 635.793,297.027 630.406,291.903C625.02,286.78 624.359,287.356 623.096,280.316C621.833,273.276 620.657,274.431 621.929,267.788C623.202,261.145 627.31,250.258 631.279,247.953C635.248,245.647 640.667,239.636 639.065,240.161Z" style="fill:url(#_logo-2);"/>
        <path d="M586.821,203.218C586.774,203.223 586.712,203.234 586.638,203.255C586.346,203.339 585.775,203.597 585.447,204.588C585.209,205.305 585.09,206.477 585.376,208.39C585.827,211.404 586.928,216.745 589.185,221.682C590.506,224.573 592.223,227.325 594.431,229.398C597.808,232.569 605.793,237.597 615.449,240.221C622.789,242.216 631.094,242.824 639.065,240.161L639.066,240.161C639.952,239.876 638.678,241.575 636.69,243.538C635.087,245.122 633.018,246.876 631.242,247.894C629.432,248.931 627.578,251.727 625.973,255.099C624.029,259.18 622.445,264.103 621.723,267.752C621.221,270.293 621.084,271.706 621.171,272.866C621.312,274.755 622.056,275.972 622.818,280.362C623.457,284.041 623.959,285.678 625.018,287.11C626.014,288.457 627.519,289.619 630.151,292.15C631.366,293.318 632.121,294.363 632.618,295.329C634.328,298.648 633.177,301.037 636.685,304.026C639.11,306.093 639.973,307.133 640.867,307.569C641.715,307.983 642.599,307.918 644.748,307.591C646.121,307.382 647.149,306.822 648.019,306.081C649.859,304.513 650.914,302.045 653.342,300.631C654.709,299.834 655.565,299.529 656.437,299.494C657.714,299.442 659.01,299.914 661.749,300.196C665.201,300.552 670.675,302.854 676.249,304.116C678.465,304.619 680.697,304.958 682.828,304.968C684.252,304.974 685.398,304.877 686.383,304.711C690.579,304.003 691.717,301.951 699.516,301.207C704.762,300.706 708.077,301.354 709.637,301.518C710.561,301.615 711.105,301.431 711.328,301.221C711.576,300.989 711.727,300.66 711.604,300.17C711.535,299.896 711.311,299.473 710.894,298.871C710.349,298.086 710.096,297.63 710.05,297.225C710.005,296.833 710.159,296.509 710.305,296.002C710.533,295.214 710.806,294.103 710.815,292.158C710.827,289.709 709.828,284.955 708.532,280.347C707.137,275.384 705.386,270.597 704.248,268.982C702.974,267.174 700.792,264 699.115,260.811C698.048,258.782 697.18,256.752 696.928,255.086C696.845,254.541 697.189,254.163 697.697,253.851C698.562,253.319 699.854,252.994 701.3,252.765C705.006,252.177 709.677,252.309 711.716,252.266C712.419,252.25 713.402,251.979 714.555,251.464C716.903,250.413 720.105,248.327 723.088,245.918C727.052,242.716 730.582,238.915 731.417,236.24C731.808,234.986 732.423,233.311 733.16,231.405C735.544,225.238 739.192,216.688 740.849,211.95C741.633,209.7 743.46,207.535 745.577,205.542C749.119,202.206 753.495,199.375 755.796,197.551C757.681,196.053 758.299,195.228 758.496,194.691C758.637,194.306 758.649,193.976 758.597,193.654C758.568,193.477 758.516,193.303 758.451,193.116C758.392,192.944 758.306,192.739 758.367,192.378C758.479,191.72 758.636,191.296 758.655,191.012C758.686,190.569 758.571,190.226 758.357,189.934C758.19,189.705 757.944,189.486 757.536,189.328C757.008,189.122 755.704,189.03 752.777,188.745C751.2,188.592 750.027,187.919 748.668,187.107C746.872,186.034 744.818,184.716 741.582,183.667C738.553,182.684 734.479,181.935 728.584,181.876C723.341,181.828 718.424,180.528 714.012,178.755C707.347,176.078 701.821,172.319 698.048,170.002C696.107,168.809 694.568,167.992 693.536,167.766C691.747,167.373 690.198,167.625 688.687,168.277C686.248,169.331 683.916,171.573 680.513,173.456C678.063,174.811 675.389,176.627 672.925,178.485C670.147,180.581 667.637,182.729 666.016,184.318C664.719,185.592 663.738,186.585 662.671,187.005C661.686,187.393 660.671,187.133 659.201,186.195C658.384,185.673 658.234,184.941 658.342,183.97C658.668,181.032 660.96,176.482 661.587,169.404C661.934,165.479 661.131,161.555 659.748,157.929C657.322,151.56 653.125,146.117 650.529,143.231C648.591,141.076 647.569,139.037 646.833,138.203C646.355,137.662 645.866,137.472 645.464,137.485C645.096,137.496 644.694,137.642 644.332,138.101C643.987,138.538 643.592,139.472 643.127,141.085C642.517,143.201 641.768,144.833 640.863,146.242C639.342,148.612 637.392,150.363 634.984,152.707C632.319,155.307 627.02,157.643 622.305,162.221C619.976,164.482 617.785,167.275 616.101,170.888C612.563,178.481 611.068,185.075 609.442,189.443C608.773,191.24 608.095,192.647 607.21,193.557C606.08,194.719 602.931,196.349 599.455,197.951C593.899,200.511 587.501,202.959 586.821,203.218ZM645.575,139.622C645.707,139.793 645.859,139.999 645.986,140.194C646.679,141.254 647.62,142.81 649.057,144.436C651.174,146.832 654.406,151.043 656.723,156.063C658.585,160.097 659.862,164.66 659.424,169.221C658.746,176.278 656.42,180.802 656.074,183.731C655.849,185.632 656.32,186.999 657.914,188.032C659.671,189.171 661.064,189.523 662.306,189.392C664.079,189.205 665.643,187.92 667.713,185.915C669.287,184.388 671.726,182.327 674.421,180.316C676.801,178.54 679.38,176.802 681.743,175.509C685.068,173.69 687.335,171.494 689.716,170.479C690.73,170.047 691.767,169.867 692.964,170.135C693.818,170.327 695.056,171.07 696.661,172.065C700.516,174.455 706.17,178.316 712.99,181.08C717.698,182.987 722.954,184.369 728.555,184.433C734.073,184.493 737.887,185.178 740.722,186.099C743.706,187.069 745.593,188.298 747.251,189.287C748.979,190.318 750.502,191.101 752.509,191.294C754.071,191.443 755.119,191.516 755.811,191.59C755.784,191.714 755.758,191.843 755.737,191.969C755.592,192.829 755.821,193.63 755.923,193.927C755.868,194.001 755.782,194.109 755.697,194.199C755.366,194.545 754.858,194.988 754.099,195.593C751.766,197.456 747.334,200.357 743.744,203.762C741.324,206.057 739.292,208.587 738.402,211.173C736.781,215.902 733.195,224.439 730.858,230.595C730.112,232.562 729.491,234.289 729.097,235.583C728.363,237.984 725.106,241.315 721.571,244.205C719.202,246.142 716.689,247.869 714.631,248.964C713.385,249.626 712.348,250.073 711.657,250.092C709.203,250.163 703.072,250.042 699.108,251.085C696.232,251.842 694.492,253.314 694.823,255.387C695.118,257.228 696.068,259.477 697.267,261.712C699.016,264.971 701.279,268.211 702.602,270.057C703.695,271.58 705.342,276.128 706.707,280.826C707.992,285.246 709.02,289.803 709.031,292.158C709.041,294.325 708.676,295.335 708.474,296.071C708.34,296.561 708.272,296.964 708.328,297.414C708.4,297.991 708.687,298.674 709.474,299.785L709.533,299.871C709.308,299.851 709.058,299.826 708.808,299.796C706.937,299.572 703.815,299.227 699.351,299.693C691.485,300.516 690.352,302.584 686.123,303.337C685.211,303.5 684.149,303.597 682.828,303.603C680.799,303.613 678.671,303.302 676.556,302.845C670.916,301.624 665.359,299.375 661.871,299.052C659.043,298.79 657.7,298.335 656.383,298.401C655.364,298.453 654.353,298.784 652.764,299.732C650.29,301.209 649.21,303.729 647.34,305.357C646.611,305.991 645.748,306.477 644.589,306.666C642.764,306.963 642.014,307.11 641.289,306.766C640.427,306.357 639.61,305.348 637.266,303.394C633.842,300.54 634.996,298.189 633.307,294.998C632.769,293.982 631.961,292.88 630.661,291.657C628.04,289.191 626.539,288.067 625.542,286.75C624.507,285.383 624.03,283.805 623.375,280.27C622.567,275.911 621.809,274.708 621.648,272.831C621.55,271.697 621.674,270.315 622.136,267.825C622.809,264.19 624.324,259.278 626.204,255.199C627.75,251.847 629.539,249.057 631.316,248.011C633.086,246.969 635.142,245.185 636.732,243.576C638.699,241.586 639.951,239.865 639.066,240.161L639.065,240.161C631.088,242.723 622.819,242.028 615.529,239.956C605.997,237.247 598.143,232.186 594.837,229.006C592.709,226.96 591.073,224.254 589.819,221.42C587.655,216.529 586.632,211.254 586.223,208.278C586.034,206.911 586.055,205.96 586.182,205.3C586.406,204.138 586.927,204.085 586.927,204.085C586.984,204.085 587.04,204.075 587.093,204.055C587.093,204.055 595.734,200.883 602.005,197.902C604.779,196.583 607.091,195.286 608.053,194.317C609.036,193.328 609.825,191.804 610.581,189.839C612.247,185.511 613.801,178.968 617.402,171.453C619.042,168.03 621.157,165.394 623.397,163.264C628.17,158.726 633.499,156.437 636.196,153.86C638.733,151.432 640.77,149.608 642.382,147.146C643.38,145.622 644.216,143.857 644.9,141.563C645.156,140.705 645.373,140.07 645.574,139.625L645.575,139.622Z" style="fill:rgb(250,242,218);"/>
      </g>
      <g transform="matrix(0.372416,0,0,0.388704,344.793,-274.865)">
        <path d="M577.896,283.063C580.941,276.82 589.969,263.925 605.733,254.37C613.836,249.458 623.652,245.344 635.478,243.542C635.835,243.5 636.088,243.188 636.044,242.847C636,242.505 635.675,242.262 635.318,242.304C624.375,243.226 614.887,246.064 606.85,249.946C600.426,253.049 594.961,256.833 590.358,260.678C579.075,270.105 573.129,280.197 571.884,283.724C571.225,285.591 571.797,286.829 572.107,287.246C572.777,288.148 573.766,288.591 575.167,288.246C575.637,288.131 576.677,287.6 577.863,286.104C578.57,285.178 578.547,283.953 577.896,283.063ZM573.263,283.341C573.027,283.386 572.826,283.462 572.983,283.61C573.068,283.691 573.159,283.534 573.263,283.341Z" style="fill:rgb(142,151,117);"/>
        <path d="M646.086,143.173C646.082,143.262 646.084,143.362 646.094,143.475L646.081,143.475C646.067,143.483 646.069,143.477 646.073,143.492L646.098,143.515L646.106,143.591C646.231,144.617 646.36,147.019 646.476,152.393C646.592,156.593 644.1,165.073 641.246,175.48C638.322,186.143 635.007,198.776 633.184,210.8C631.733,220.368 631.297,229.564 632.733,237.165C633.023,238.582 634.459,239.505 635.937,239.227C637.416,238.949 638.38,237.573 638.089,236.157C636.516,229.053 636.737,220.402 637.798,211.37C639.2,199.439 642.133,186.881 644.523,176.23C646.945,165.44 648.808,156.585 648.437,152.29C647.935,146.86 647.617,144.44 647.429,143.408C647.313,142.767 647.188,142.517 647.127,142.44C646.955,142.222 646.761,142.178 646.615,142.17C646.403,142.159 646.117,142.237 645.958,142.554C645.908,142.652 645.856,142.913 645.856,142.913L646.086,143.173ZM646.499,143.639L646.499,143.639L646.499,143.639L646.499,143.639Z" style="fill:rgb(142,151,117);"/>
        <path d="M661.055,230.104C660.92,226.104 663.162,220.878 666.277,215.341C669.407,209.777 673.49,203.989 677.269,198.765C682.999,190.843 688.091,184.276 689.057,182.261C689.223,181.956 689.099,181.579 688.78,181.42C688.461,181.261 688.068,181.38 687.902,181.685C686.746,183.58 680.891,189.441 674.593,196.835C670.296,201.88 665.85,207.639 662.324,213.164C658.334,219.416 655.685,225.479 655.596,230.14C655.607,231.583 656.838,232.747 658.345,232.737C659.851,232.727 661.066,231.547 661.055,230.104Z" style="fill:rgb(142,151,117);"/>
        <path d="M715.154,243.587C715.065,242.907 714.773,243.014 714.622,243.253C714.514,243.424 714.502,243.624 714.574,243.796C713.221,244.003 709.786,243.821 701.478,242.474C696.297,241.72 692.727,240.709 689.663,239.487C682.379,236.584 677.926,232.421 663.028,226.978C661.606,226.501 660.047,227.219 659.549,228.581C659.051,229.943 659.801,231.437 661.222,231.914C676.283,236.535 680.896,240.509 688.299,242.938C691.658,244.04 695.557,244.836 701.148,245.246C707.743,245.626 711.38,245.603 713.36,245.404C715.787,245.16 716.2,244.389 716.198,244.043C716.195,243.649 715.826,243.243 715.606,243.099C715.266,242.876 715.17,243.225 715.154,243.587ZM714.866,244.115C714.869,244.124 714.875,244.132 714.885,244.14C715.015,244.248 715.179,244.199 715.179,244.199L714.866,244.115Z" style="fill:rgb(142,151,117);"/>
        <path d="M637.875,238.204C637.27,232.997 633.455,228.039 627.921,223.764C623.038,219.992 616.934,216.617 611.113,213.926C603.058,210.202 595.667,207.742 593.519,206.448C593.226,206.249 592.819,206.317 592.612,206.598C592.405,206.879 592.475,207.268 592.769,207.467C594.567,208.828 600.388,211.698 607.173,215.431C611.644,217.891 616.536,220.708 620.86,223.846C627.001,228.302 632.12,233.242 632.435,238.641C632.561,240.079 633.882,241.149 635.383,241.029C636.884,240.908 638.001,239.642 637.875,238.204Z" style="fill:rgb(142,151,117);"/>
        <path d="M634.102,244.64C639.152,250.004 641.809,257.386 643.174,264.947C644.248,270.895 644.494,276.949 644.413,282.322C644.276,291.374 643.169,298.467 642.699,299.731C642.562,300.049 642.72,300.414 643.053,300.545C643.385,300.676 643.765,300.524 643.902,300.206C644.517,298.952 646.596,291.79 647.507,282.482C648.052,276.917 648.127,270.603 647.369,264.366C646.332,255.833 643.583,247.498 638.244,241.233C637.263,240.138 635.538,240.012 634.395,240.952C633.252,241.893 633.121,243.545 634.102,244.64Z" style="fill:rgb(142,151,117);"/>
        <path d="M634.564,243.871C639.881,252.307 642.412,257.453 646.814,261.678C650.744,265.449 656.127,268.54 666.3,272.436C674.236,275.431 681.569,279.465 687.85,283.385C697.98,289.708 705.337,295.81 707.625,297.527C707.901,297.748 708.312,297.713 708.542,297.45C708.773,297.186 708.736,296.792 708.461,296.571C706.275,294.696 699.363,287.984 689.517,281.075C683.289,276.704 675.879,272.31 667.855,268.885C658.634,265 653.729,262.091 650.237,258.51C646.206,254.377 644.049,249.385 639.281,241.24C638.523,239.993 636.851,239.569 635.549,240.296C634.247,241.022 633.806,242.624 634.564,243.871Z" style="fill:rgb(142,151,117);"/>
        <path d="M640.893,242.623C653.535,233.936 668.542,226.304 683.353,219.813C695.252,214.599 707.036,210.158 717.39,206.494C737.547,199.361 752.329,195.312 752.329,195.312C752.677,195.228 752.889,194.888 752.801,194.555C752.712,194.221 752.358,194.019 752.01,194.103C752.01,194.103 739.731,196.698 722.257,201.897C713.532,204.493 703.526,207.758 693.102,211.631C674.299,218.618 654.186,227.637 637.767,238.335C636.532,239.162 636.23,240.794 637.092,241.977C637.955,243.16 639.658,243.449 640.893,242.623Z" style="fill:rgb(142,151,117);"/>
      </g>
    </g>
    <g transform="matrix(-0.038535, -0.342354, 0.342354, -0.038535, 194.5811, 439.311646)">
      <g transform="matrix(-0.242402,2.15355,-2.15355,-0.242402,1271.31,-216.868)">
        <path d="M191.848,298.396C186.793,298.829 181.99,297.769 177.868,296.288C175.343,295.38 173.082,294.326 171.161,293.327C167.254,291.293 164.809,289.506 164.809,289.506C164.594,289.312 164.262,289.329 164.067,289.544C163.873,289.758 163.889,290.091 164.104,290.285C164.104,290.285 166.234,292.631 169.96,295.287C171.826,296.617 174.092,297.985 176.656,299.202C181.078,301.3 186.372,302.811 192.042,302.797C193.256,302.744 194.199,301.715 194.146,300.5C194.092,299.286 193.063,298.343 191.848,298.396Z" style="fill:rgb(142,151,117);"/>
      </g>
      <g transform="matrix(1,0,0,1,502.746,-107.051)">
        <path d="M100.258,174.677C102.51,180.372 123.164,192.725 126.262,189.054C129.359,185.383 141.077,161.171 146.297,157.131C151.518,153.091 155.876,145.569 154.333,142.689C152.791,139.809 147.105,138.455 142.152,135.669C137.198,132.884 123.914,134.397 122.617,133.805C121.32,133.214 117.347,126.591 116.672,121.978C115.997,117.366 114.003,108.342 112.769,106.193C111.535,104.045 107.048,89.118 105.813,86.718C104.579,84.318 101.848,79.772 100.565,79.32C99.283,78.867 89.325,92.355 87.322,93.142C85.319,93.929 82.27,103.142 81.491,105.368C80.712,107.594 76.727,114.342 75.296,115.875C73.865,117.409 69.725,128.978 69.725,131.411C69.725,133.845 68.097,141.328 65.605,143.051C63.113,144.774 52.762,154.516 51.727,156.73C50.693,158.944 48.134,162.493 48.08,165.18C48.026,167.868 48.771,171.359 50.371,172.838C51.972,174.317 59.853,181.637 60.301,182.678C60.748,183.718 69.351,188.17 70.554,189.811C71.757,191.453 74.323,197.816 76.204,199.044C78.086,200.271 83.709,196.927 85.633,194.527C87.557,192.128 95.014,186.525 96.716,182.57C98.418,178.615 99.96,173.922 100.258,174.677Z" style="fill:url(#_logo-3);"/>
        <path d="M123.17,132.567C123.072,132.469 122.85,132.244 122.688,132.042C121.928,131.093 120.959,129.492 120.093,127.698C119.159,125.762 118.346,123.597 118.093,121.77C117.736,119.234 116.995,115.383 116.192,112.038C115.479,109.066 114.688,106.485 114.091,105.434C113.07,103.638 109.819,92.811 108.098,88.08C107.749,87.12 107.452,86.389 107.244,85.982C106.448,84.428 105.048,82.01 103.784,80.29C102.789,78.937 101.758,78.022 101.105,77.791C100.786,77.678 100.38,77.631 99.898,77.78C99.479,77.908 98.741,78.382 97.88,79.222C95.584,81.461 91.459,86.647 88.672,89.72C88.064,90.39 87.528,90.955 87.095,91.346C86.94,91.486 86.707,91.663 86.683,91.681C86.312,91.839 85.904,92.121 85.505,92.556C84.887,93.229 84.198,94.374 83.542,95.745C82.019,98.926 80.553,103.39 80.046,104.862C79.687,105.91 78.582,108.004 77.402,110.039C76.196,112.12 74.916,114.143 74.234,114.884C73.464,115.72 71.895,119.28 70.611,122.962C69.375,126.505 68.378,130.143 68.387,131.411C68.399,132.764 67.878,135.78 66.978,138.36C66.417,139.97 65.765,141.435 64.906,142.04C63.474,143.049 59.477,146.702 56.109,150.096C53.471,152.754 51.234,155.278 50.775,156.285C50.073,157.83 48.65,160.021 47.823,162.12C47.406,163.18 47.133,164.22 47.124,165.161C47.108,166.784 47.366,168.68 47.909,170.3C48.351,171.62 48.984,172.76 49.779,173.479C50.798,174.401 54.345,177.624 56.933,180.13C58.345,181.497 59.483,182.606 59.641,182.961C59.747,183.2 60.145,183.621 60.808,184.088C63.136,185.725 69.102,188.831 70.093,190.15C70.905,191.232 72.344,194.41 73.775,196.75C74.53,197.986 75.295,198.994 75.961,199.417C76.906,200.018 78.7,199.673 80.555,198.761C82.637,197.737 84.821,196.08 85.881,194.726C87.191,193.051 91.135,189.811 93.98,186.657C95.254,185.243 96.309,183.847 96.821,182.615C97.81,180.234 98.737,177.59 99.389,176.011C99.825,174.955 100.135,174.376 100.258,174.676L100.258,174.677C101.456,177.823 108.171,183.044 114.514,186.521C118.12,188.499 121.612,189.905 123.922,190.08C125.138,190.173 126.051,189.91 126.569,189.313C128.681,186.868 134.8,175.199 140.186,166.58C142.751,162.477 145.125,159.07 146.811,157.795C149.612,155.679 152.183,152.606 153.815,149.714C154.813,147.944 155.453,146.232 155.622,144.828C155.746,143.791 155.608,142.896 155.244,142.201C154.599,140.969 153.322,139.942 151.649,139.01C149.186,137.638 145.809,136.425 142.724,134.652C141.225,133.791 139.015,133.268 136.573,132.981C132.696,132.525 128.214,132.64 125.361,132.643C124.466,132.644 123.436,132.584 123.17,132.567ZM87.969,94.6C88.3,94.456 88.776,94.14 89.329,93.637C90.163,92.877 91.325,91.603 92.61,90.127C94.959,87.426 97.747,84.026 99.642,82.058C99.894,81.796 100.193,81.516 100.443,81.292C100.973,81.884 101.572,82.731 102.16,83.637C103.02,84.964 103.847,86.416 104.383,87.453C105.289,89.199 107.955,97.693 109.793,102.858C110.497,104.834 111.1,106.355 111.447,106.953C111.981,107.871 112.642,110.147 113.297,112.749C114.112,115.991 114.877,119.726 115.251,122.187C115.634,124.668 116.902,127.7 118.258,130.158C119.155,131.782 120.085,133.158 120.803,133.974C121.294,134.534 121.746,134.877 122.063,135.019C122.341,135.143 123.001,135.262 123.96,135.275C126.48,135.309 131.804,134.962 136.309,135.412C138.39,135.619 140.291,135.978 141.58,136.686C144.711,138.408 148.124,139.564 150.622,140.894C151.893,141.571 152.921,142.26 153.423,143.177C153.7,143.68 153.683,144.382 153.522,145.196C153.309,146.273 152.821,147.511 152.136,148.792C150.678,151.52 148.347,154.436 145.783,156.467C144.038,157.85 141.572,161.458 138.971,165.84C133.807,174.545 128.001,186.312 125.955,188.795C125.499,189.35 124.579,189.443 123.376,189.289C120.512,188.923 116.174,187.017 112.015,184.602C106.524,181.415 101.35,177.337 100.258,174.677L100.258,174.676C100.142,174.371 99.812,174.943 99.346,175.993C98.655,177.554 97.66,180.171 96.611,182.525C96.078,183.721 95.005,185.061 93.72,186.416C90.781,189.514 86.743,192.677 85.385,194.328C84.344,195.595 82.222,197.119 80.215,198.048C78.671,198.763 77.214,199.183 76.448,198.671C75.87,198.284 75.246,197.359 74.606,196.255C73.209,193.846 71.815,190.59 71.016,189.473C70.709,189.044 69.953,188.425 68.96,187.731C66.976,186.344 64.015,184.593 62.224,183.367C61.555,182.908 61.045,182.596 60.96,182.394C60.79,181.984 59.586,180.633 58.013,179.04C55.467,176.462 51.968,173.146 50.964,172.197C50.373,171.64 49.947,170.748 49.633,169.742C49.184,168.304 48.992,166.629 49.036,165.2C49.065,164.232 49.485,163.149 50.008,162.064C50.873,160.269 52.049,158.488 52.679,157.175C53.114,156.268 55.253,154.07 57.695,151.698C61.004,148.484 64.906,145.011 66.304,144.062C67.484,143.26 68.574,141.39 69.373,139.219C70.437,136.33 71.05,132.936 71.063,131.411C71.072,130.276 72.097,127.058 73.247,123.903C74.408,120.719 75.681,117.584 76.359,116.867C77.127,116.054 78.605,113.846 79.974,111.553C81.303,109.328 82.526,107.023 82.937,105.874C83.377,104.636 84.544,101.202 85.83,98.311C86.375,97.085 86.937,95.961 87.476,95.182C87.636,94.95 87.912,94.659 87.969,94.6Z" style="fill:rgb(250,242,218);"/>
      </g>
      <g transform="matrix(1,0,0,1,502.746,-107.051)">
        <path d="M100.388,165.928C97.029,144.71 96.409,128.754 96.848,116.81C97.621,95.789 101.91,87.131 101.771,84.241C101.765,84 101.564,83.809 101.323,83.815C101.081,83.821 100.89,84.022 100.896,84.263C100.903,87.166 96,95.631 94.471,116.681C93.596,128.742 93.916,144.905 96.755,166.454C96.9,167.457 97.832,168.153 98.835,168.008C99.838,167.862 100.534,166.93 100.388,165.928Z" style="fill:rgb(142,151,117);"/>
        <path d="M99.846,167.512C104.033,163.333 111.822,159.105 120.192,155.322C125.85,152.765 131.779,150.443 137.088,148.478C145.784,145.26 152.812,143.048 154.387,142.869C154.628,142.85 154.808,142.639 154.788,142.398C154.769,142.157 154.558,141.977 154.317,141.996C152.71,142.072 145.407,143.718 136.418,146.505C130.953,148.199 124.879,150.336 119.067,152.703C110.122,156.346 101.845,160.626 97.297,164.87C96.568,165.574 96.547,166.737 97.25,167.466C97.954,168.195 99.117,168.216 99.846,167.512Z" style="fill:rgb(142,151,117);"/>
        <path d="M98.404,164.958C96.116,164.29 92.441,164.203 88.06,164.523C81.119,165.03 72.308,166.386 64.71,167.349C57.849,168.219 52.013,168.809 49.491,167.723C49.273,167.619 49.012,167.711 48.907,167.929C48.803,168.146 48.895,168.408 49.112,168.513C50.906,169.471 54.499,169.803 59.012,169.727C64.684,169.632 71.817,168.926 78.558,168.39C86.456,167.763 93.78,167.271 97.303,168.46C98.269,168.764 99.301,168.226 99.605,167.26C99.909,166.293 99.371,165.262 98.404,164.958Z" style="fill:rgb(142,151,117);"/>
        <path d="M69.673,138.649L69.673,138.648L69.673,138.649L69.673,138.649L69.673,138.649L69.673,138.649L69.673,138.651C69.647,138.881 69.808,139.094 70.04,139.13L69.987,139.061C70.066,139.113 70.166,139.16 70.29,139.2C70.652,139.314 71.385,139.606 72.801,140.209C74.209,140.81 76.268,141.715 79.264,143.12C83.945,145.179 90.444,150.525 93.627,153.47C93.64,154.027 93.906,154.571 94.393,154.921C95.161,155.436 95.652,155.724 95.899,155.831C96.97,156.294 97.643,155.864 97.871,155.684C98.332,155.322 99.047,154.574 98.4,153.38C98.314,153.222 98.094,152.884 97.662,152.475C95.537,150.463 86.207,143.37 80.047,141.157C77.518,140.312 75.631,139.706 74.21,139.288C72.177,138.69 71.126,138.462 70.622,138.355C70.412,138.311 70.246,138.219 70.236,138.277C70.153,138.731 69.691,138.652 69.673,138.649ZM69.673,138.648L69.675,138.63C69.712,138.392 69.936,138.228 69.673,138.648ZM96.957,152.301C97.2,152.524 97.372,152.686 97.422,152.587C97.615,152.207 97.338,152.192 96.957,152.301Z" style="fill:rgb(142,151,117);"/>
        <path d="M120.147,131.323L120.193,131.316L120.194,131.315C121.038,131.174 120.867,130.964 120.631,130.937C120.498,130.923 120.373,130.969 120.284,131.055L120.281,131.051C120.25,131.008 120.145,131.147 119.94,131.285C119.499,131.581 118.546,132.2 116.483,133.555C114.982,134.568 112.9,135.561 110.345,137.287C108.631,138.445 106.729,139.936 104.632,141.914C101.803,144.584 98.663,148.175 95.236,153.143C94.687,153.995 94.932,155.132 95.784,155.681C96.635,156.23 97.773,155.985 98.322,155.133C101.293,150.196 104.097,146.61 106.609,143.873C111.345,138.712 115.105,136.618 117.373,134.729C119.235,133.109 120.089,132.359 120.493,132.014C120.681,131.854 120.769,131.782 120.81,131.749C121.426,131.258 120.147,131.323 120.147,131.323Z" style="fill:rgb(142,151,117);"/>
        <path d="M83.034,164.687C80.944,164.567 78.584,162.445 76.28,159.978C74.646,158.228 73.097,156.266 71.735,154.488C69.267,151.264 67.482,148.644 67.482,148.644C67.367,148.431 67.102,148.352 66.889,148.466C66.676,148.581 66.597,148.846 66.711,149.059C66.711,149.059 67.953,152.05 69.999,155.64C71.153,157.667 72.585,159.846 74.107,161.823C76.798,165.317 79.959,167.952 82.668,168.341C83.676,168.442 84.576,167.705 84.678,166.697C84.779,165.689 84.042,164.788 83.034,164.687Z" style="fill:rgb(142,151,117);"/>
        <path d="M96.725,169.627C96.885,169.742 97.067,169.832 97.266,169.89C98.238,170.177 99.26,169.621 99.547,168.65C100.22,166.132 98.862,165.22 98.014,165.094C97.552,165.025 96.749,165.092 95.845,165.763C94.498,166.762 92.064,169.52 89.464,173.158C87.022,176.574 84.353,180.734 82.303,184.832C79.726,189.984 78.107,194.989 78.635,198.083C78.664,198.323 78.882,198.494 79.122,198.466C79.361,198.437 79.533,198.219 79.505,197.98C79.299,194.957 81.557,190.358 84.472,185.595C88.417,179.148 93.678,172.474 96.725,169.627ZM96.041,167.57C96.096,167.434 96.208,167.276 96.127,167.269C95.914,167.251 95.935,167.391 96.041,167.57Z" style="fill:rgb(142,151,117);"/>
        <path d="M97.737,169.965C102.1,169.958 104.999,170.716 107.16,171.992C110.044,173.695 111.62,176.231 113.641,178.716C116.286,181.968 119.537,185.186 126.41,186.83C126.641,186.898 126.885,186.765 126.953,186.534C127.022,186.302 126.889,186.058 126.658,185.99C120.449,183.8 117.79,180.489 115.589,177.263C113.581,174.319 111.887,171.484 108.798,169.399C106.34,167.74 102.985,166.579 97.835,166.295C96.823,166.268 95.978,167.068 95.951,168.081C95.924,169.093 96.724,169.938 97.737,169.965Z" style="fill:rgb(142,151,117);"/>
        <g transform="matrix(1.21822,0,0,1.16075,-20.7165,-21.3128)">
          <path d="M96.346,132.031C95.587,130.134 94.056,128.12 92.148,126.177C90.367,124.364 88.313,122.559 86.384,120.936C83.973,118.907 81.795,117.183 80.932,115.749C80.838,115.565 80.621,115.496 80.446,115.593C80.271,115.691 80.204,115.92 80.297,116.103C80.93,117.619 82.622,119.66 84.691,121.886C86.985,124.354 89.728,127.035 91.631,129.669C92.493,130.861 93.172,132.028 93.524,133.143C93.817,133.96 94.686,134.375 95.465,134.068C96.243,133.761 96.638,132.849 96.346,132.031Z" style="fill:rgb(142,151,117);"/>
        </g>
        <path d="M96.957,132.687C97.351,130.696 99.268,128.63 101.527,126.461C104.759,123.358 108.771,120.22 111.304,117.307C112.944,115.422 113.966,113.632 113.948,112.068C113.963,111.826 113.78,111.618 113.539,111.603C113.298,111.587 113.089,111.771 113.074,112.012C112.804,113.99 110.416,115.948 107.539,118.142C104.059,120.795 99.833,123.667 96.929,126.501C95.117,128.269 93.863,130.098 93.383,131.843C93.15,132.829 93.762,133.819 94.748,134.052C95.734,134.285 96.723,133.673 96.957,132.687Z" style="fill:rgb(142,151,117);"/>
        <path d="M114.371,157.314C117.297,156.083 119.455,153.514 120.853,150.448C121.789,148.396 122.446,146.18 122.823,144.152C123.486,140.579 123.408,137.711 123.408,137.711C123.429,137.47 123.251,137.258 123.01,137.237C122.77,137.216 122.557,137.394 122.536,137.635C122.536,137.635 121.973,140.316 120.809,143.613C120.18,145.396 119.386,147.35 118.328,149.125C117.041,151.286 115.376,153.162 113.113,153.864C112.161,154.211 111.67,155.266 112.017,156.218C112.364,157.17 113.419,157.661 114.371,157.314Z" style="fill:rgb(142,151,117);"/>
        <path d="M83.755,165.187C81.88,165.455 79.245,167.089 76.605,169.488C74.523,171.38 72.346,173.657 70.503,175.844C67.414,179.509 65.204,182.783 65.204,182.783C65.05,182.969 65.076,183.245 65.262,183.399C65.448,183.553 65.724,183.527 65.879,183.341C65.879,183.341 68.647,180.609 72.131,177.401C74.161,175.532 76.404,173.488 78.566,171.846C80.718,170.21 82.695,168.927 84.127,168.839C85.135,168.737 85.87,167.835 85.767,166.827C85.665,165.819 84.763,165.084 83.755,165.187Z" style="fill:rgb(142,151,117);"/>
        <path d="M109.034,160.056C111.214,159.965 113.629,160.569 116.08,161.467C118.898,162.499 121.728,163.931 124.34,165.197C128.001,166.97 131.197,168.44 133.122,168.593C133.361,168.63 133.585,168.467 133.622,168.228C133.659,167.989 133.495,167.765 133.256,167.728C131.455,167.309 128.721,165.332 125.441,163.231C122.908,161.609 120.074,159.94 117.253,158.633C114.439,157.331 111.61,156.474 109.02,156.384C108.007,156.388 107.187,157.214 107.191,158.227C107.195,159.24 108.02,160.06 109.034,160.056Z" style="fill:rgb(142,151,117);"/>
      </g>
    </g>
    <g transform="matrix(-0.003024, -0.746613, -0.746613, 0.003024, -371.666931, 362.202606)" style="transform-origin: 592.494px -188.312px;">
      <g transform="matrix(0.372416,0,0,0.388704,344.793,-274.865)">
        <path d="M639.065,240.161C620.634,246.2 600.523,234.799 594.634,229.202C588.744,223.606 586.48,213.074 585.799,208.334C585.118,203.595 586.927,203.648 586.927,203.648C586.927,203.648 604.543,197.08 607.632,193.937C610.721,190.794 611.637,181.993 616.752,171.17C621.866,160.348 631.618,157.118 635.59,153.284C639.562,149.449 642.301,147.162 644.014,141.324C645.727,135.486 645.847,139.407 649.793,143.833C653.739,148.259 661.477,158.786 660.505,169.312C659.534,179.839 654.887,184.752 658.558,187.114C662.229,189.475 663.853,188.054 666.864,185.117C669.875,182.18 676.002,177.303 681.128,174.482C686.254,171.662 688.907,167.987 693.25,168.95C697.593,169.914 711.403,182.977 728.57,183.155C745.737,183.332 746.954,189.47 752.643,190.019C758.332,190.569 757.394,190.15 757.052,192.173C756.71,194.196 758.738,193.556 754.947,196.572C751.157,199.588 741.779,205.341 739.625,211.562C737.472,217.782 731.901,230.584 730.257,235.911C728.613,241.238 715.47,251.084 711.687,251.179C707.903,251.274 695.19,250.83 695.876,255.236C696.562,259.642 701.267,266.484 703.425,269.52C705.583,272.555 709.923,287.186 709.923,292.158C709.923,297.129 708.08,296.328 710.184,299.328C712.287,302.329 709.031,299.49 699.434,300.45C689.837,301.41 690.293,304.286 682.828,304.286C675.363,304.286 666.621,300.095 661.81,299.624C656.999,299.153 656.561,298.113 653.053,300.182C649.546,302.25 648.873,306.465 644.669,307.128C640.465,307.791 641.497,307.521 636.975,303.71C632.454,299.899 635.793,297.027 630.406,291.903C625.02,286.78 624.359,287.356 623.096,280.316C621.833,273.276 620.657,274.431 621.929,267.788C623.202,261.145 627.31,250.258 631.279,247.953C635.248,245.647 640.667,239.636 639.065,240.161Z" style="fill:url(#_logo-2);"/>
        <path d="M586.821,203.218C587.501,202.959 593.899,200.511 599.455,197.951C602.931,196.349 606.08,194.719 607.21,193.557C608.095,192.647 608.773,191.24 609.442,189.443C611.068,185.075 612.563,178.481 616.101,170.888C617.785,167.275 619.976,164.482 622.305,162.221C627.02,157.643 632.319,155.307 634.984,152.707C637.392,150.363 639.342,148.612 640.863,146.242C641.768,144.833 642.517,143.201 643.127,141.085C643.469,139.901 643.758,139.094 644.02,138.592C644.38,137.902 644.811,137.621 645.16,137.529C645.647,137.399 646.246,137.539 646.833,138.203C647.569,139.037 648.591,141.076 650.529,143.231C653.125,146.117 657.322,151.56 659.748,157.929C661.131,161.555 661.934,165.479 661.587,169.404C660.96,176.482 658.668,181.032 658.342,183.97C658.234,184.941 658.384,185.673 659.201,186.195C660.671,187.133 661.686,187.393 662.671,187.005C663.738,186.585 664.719,185.592 666.016,184.318C667.637,182.729 670.147,180.581 672.925,178.485C675.389,176.627 678.063,174.811 680.513,173.456C683.916,171.573 686.248,169.331 688.687,168.277C690.198,167.625 691.747,167.373 693.536,167.766C694.568,167.992 696.107,168.809 698.048,170.002C701.821,172.319 707.347,176.078 714.012,178.755C718.424,180.528 723.341,181.828 728.584,181.876C734.479,181.935 738.553,182.684 741.582,183.667C744.818,184.716 746.872,186.034 748.668,187.107C750.026,187.919 751.2,188.592 752.777,188.745C755.704,189.03 757.008,189.122 757.536,189.328C757.944,189.486 758.19,189.705 758.357,189.934C758.571,190.226 758.686,190.569 758.655,191.012C758.636,191.296 758.479,191.72 758.367,192.378C758.306,192.739 758.392,192.944 758.451,193.116C758.516,193.303 758.568,193.477 758.597,193.654C758.649,193.976 758.637,194.306 758.496,194.691C758.299,195.228 757.681,196.053 755.796,197.551C753.495,199.375 749.119,202.206 745.577,205.542C743.46,207.535 741.633,209.7 740.849,211.95C739.192,216.688 735.544,225.238 733.16,231.405C732.423,233.311 731.808,234.986 731.417,236.24C730.582,238.915 727.052,242.716 723.088,245.918C720.105,248.327 716.903,250.413 714.555,251.464C713.402,251.979 712.419,252.25 711.716,252.266C709.677,252.309 705.006,252.177 701.3,252.765C699.854,252.994 698.562,253.319 697.697,253.851C697.189,254.163 696.845,254.541 696.928,255.086C697.18,256.752 698.048,258.782 699.115,260.811C700.792,264 702.974,267.174 704.248,268.982C705.386,270.597 707.137,275.384 708.532,280.347C709.828,284.955 710.827,289.709 710.815,292.158C710.806,294.103 710.533,295.214 710.305,296.002C710.159,296.509 710.005,296.833 710.05,297.225C710.096,297.63 710.349,298.086 710.894,298.871C711.311,299.473 711.535,299.896 711.604,300.17C711.727,300.66 711.576,300.989 711.328,301.221C711.105,301.431 710.561,301.615 709.637,301.518C708.077,301.354 704.762,300.706 699.516,301.207C691.717,301.951 690.579,304.003 686.383,304.711C685.398,304.877 684.252,304.974 682.828,304.968C680.697,304.958 678.465,304.619 676.249,304.116C670.675,302.854 665.201,300.552 661.749,300.196C659.01,299.914 657.714,299.442 656.437,299.494C655.565,299.529 654.709,299.834 653.342,300.631C650.914,302.045 649.859,304.513 648.019,306.081C647.149,306.822 646.121,307.382 644.748,307.591C642.599,307.918 641.715,307.983 640.867,307.569C639.973,307.133 639.11,306.093 636.685,304.026C633.177,301.037 634.328,298.648 632.618,295.329C632.121,294.363 631.366,293.318 630.151,292.15C627.519,289.619 626.014,288.457 625.018,287.11C623.959,285.678 623.457,284.041 622.818,280.362C622.056,275.972 621.312,274.755 621.171,272.866C621.084,271.706 621.221,270.293 621.723,267.752C622.445,264.103 624.029,259.18 625.973,255.099C627.578,251.727 629.432,248.931 631.242,247.894C633.018,246.876 635.087,245.122 636.69,243.538C638.678,241.575 639.952,239.876 639.066,240.161L639.065,240.161C631.094,242.824 622.789,242.216 615.449,240.221C605.793,237.597 597.808,232.569 594.431,229.398C592.223,227.325 590.506,224.573 589.185,221.682C586.928,216.745 585.827,211.404 585.376,208.39C585.09,206.477 585.209,205.305 585.447,204.588C585.775,203.597 586.346,203.339 586.638,203.255C586.712,203.234 586.774,203.223 586.821,203.218ZM709.533,299.871L709.474,299.785C708.687,298.674 708.4,297.991 708.328,297.414C708.272,296.964 708.34,296.561 708.474,296.071C708.676,295.335 709.041,294.325 709.031,292.158C709.02,289.803 707.992,285.246 706.707,280.826C705.342,276.128 703.695,271.58 702.602,270.057C701.279,268.211 699.016,264.971 697.267,261.712C696.068,259.477 695.118,257.228 694.823,255.387C694.492,253.314 696.232,251.842 699.108,251.085C703.072,250.042 709.203,250.163 711.657,250.092C712.348,250.073 713.385,249.626 714.631,248.964C716.689,247.869 719.202,246.142 721.571,244.205C725.106,241.315 728.363,237.984 729.097,235.583C729.491,234.289 730.112,232.562 730.858,230.595C733.195,224.439 736.781,215.902 738.402,211.173C739.292,208.587 741.324,206.057 743.744,203.762C747.334,200.357 751.766,197.456 754.099,195.593C754.858,194.988 755.366,194.545 755.697,194.199C755.782,194.109 755.868,194.001 755.923,193.927C755.821,193.63 755.592,192.829 755.737,191.969C755.758,191.843 755.784,191.714 755.811,191.59C755.119,191.516 754.072,191.443 752.509,191.294C750.502,191.101 748.979,190.318 747.251,189.287C745.593,188.298 743.706,187.069 740.722,186.099C737.887,185.178 734.073,184.493 728.555,184.433C722.954,184.369 717.698,182.987 712.99,181.08C706.17,178.316 700.516,174.455 696.661,172.065C695.056,171.07 693.818,170.327 692.964,170.135C691.767,169.867 690.73,170.047 689.716,170.479C687.335,171.494 685.068,173.69 681.743,175.509C679.38,176.802 676.801,178.54 674.421,180.316C671.726,182.327 669.287,184.388 667.713,185.915C665.643,187.92 664.079,189.205 662.306,189.392C661.064,189.523 659.671,189.171 657.914,188.032C656.32,186.999 655.849,185.632 656.074,183.731C656.42,180.802 658.746,176.278 659.424,169.221C659.862,164.66 658.585,160.097 656.723,156.063C654.406,151.043 651.174,146.832 649.057,144.436C647.62,142.81 646.679,141.254 645.986,140.194C645.859,139.999 645.707,139.793 645.575,139.622L645.574,139.625C645.373,140.07 645.156,140.705 644.9,141.563C644.216,143.857 643.38,145.622 642.382,147.146C640.77,149.608 638.733,151.432 636.196,153.86C633.499,156.437 628.17,158.726 623.397,163.264C621.157,165.394 619.042,168.03 617.402,171.453C613.801,178.968 612.247,185.511 610.581,189.839C609.825,191.804 609.036,193.328 608.053,194.317C607.091,195.286 604.779,196.583 602.005,197.902C595.734,200.883 587.093,204.055 587.093,204.055L587.197,203.909C587.12,203.98 587.015,204.05 586.873,204.099C586.658,204.174 586.344,204.457 586.182,205.3C586.055,205.96 586.034,206.911 586.223,208.278C586.632,211.254 587.655,216.529 589.819,221.42C591.073,224.254 592.709,226.96 594.837,229.006C598.143,232.186 605.997,237.247 615.529,239.956C622.819,242.028 631.088,242.723 639.065,240.161L639.066,240.161C639.951,239.865 638.699,241.586 636.732,243.576C635.142,245.185 633.086,246.969 631.316,248.011C629.539,249.057 627.75,251.847 626.204,255.199C624.324,259.278 622.809,264.19 622.136,267.825C621.674,270.315 621.55,271.697 621.648,272.831C621.809,274.708 622.567,275.911 623.375,280.27C624.03,283.805 624.507,285.383 625.542,286.75C626.539,288.067 628.04,289.191 630.661,291.657C631.961,292.88 632.769,293.982 633.307,294.998C634.996,298.189 633.842,300.54 637.266,303.394C639.61,305.348 640.427,306.357 641.289,306.766C642.014,307.11 642.764,306.963 644.589,306.666C645.748,306.477 646.611,305.991 647.34,305.357C649.21,303.729 650.29,301.209 652.764,299.732C654.353,298.784 655.364,298.453 656.383,298.401C657.7,298.335 659.043,298.79 661.871,299.052C665.359,299.375 670.916,301.624 676.556,302.845C678.671,303.302 680.799,303.613 682.828,303.603C684.149,303.597 685.211,303.5 686.123,303.337C690.352,302.584 691.485,300.516 699.351,299.693C703.815,299.227 706.937,299.572 708.808,299.796C709.058,299.826 709.308,299.851 709.533,299.871Z" style="fill:rgb(250,242,218);"/>
      </g>
      <g transform="matrix(0.372416,0,0,0.388704,344.793,-274.865)">
        <path d="M577.896,283.063C578.547,283.953 578.57,285.178 577.863,286.104C576.677,287.6 575.637,288.131 575.167,288.246C573.766,288.591 572.777,288.148 572.107,287.246C571.797,286.829 571.225,285.591 571.884,283.724C573.129,280.197 579.075,270.105 590.358,260.678C594.961,256.833 600.426,253.049 606.85,249.946C614.887,246.064 624.375,243.226 635.318,242.304C635.675,242.262 636,242.505 636.044,242.847C636.088,243.188 635.835,243.5 635.478,243.542C623.652,245.344 613.836,249.458 605.733,254.37C589.969,263.925 580.941,276.82 577.896,283.063ZM573.354,283.176C573.201,283.432 573.081,283.713 572.985,283.613C572.717,283.333 572.97,283.217 573.354,283.176Z" style="fill:rgb(142,151,117);"/>
        <path d="M646.096,143.504C645.926,143.376 645.827,143.169 645.852,142.948L646.058,142.959L646.058,142.942L645.854,142.928C645.854,142.928 645.866,142.85 645.877,142.793C645.956,142.406 647.01,141.07 647.429,143.408C647.614,144.441 647.935,146.86 648.437,152.29C648.808,156.585 646.945,165.44 644.523,176.23C642.133,186.881 639.2,199.439 637.798,211.37C636.737,220.402 636.516,229.053 638.089,236.157C638.38,237.573 637.416,238.949 635.937,239.227C634.459,239.505 633.023,238.582 632.733,237.165C631.297,229.564 631.733,220.368 633.184,210.8C635.007,198.776 638.322,186.143 641.246,175.48C644.1,165.073 646.592,156.593 646.476,152.393C646.36,147.019 646.232,144.617 646.106,143.591L646.096,143.504Z" style="fill:rgb(142,151,117);"/>
        <path d="M655.596,230.14C655.685,225.479 658.334,219.416 662.324,213.164C665.85,207.639 670.296,201.88 674.593,196.835C680.891,189.441 686.746,183.58 687.902,181.685C688.068,181.38 688.461,181.261 688.78,181.42C689.099,181.579 689.223,181.956 689.057,182.261C688.091,184.276 682.999,190.843 677.269,198.765C673.49,203.989 669.407,209.777 666.277,215.341C663.162,220.878 660.92,226.104 661.055,230.104C661.066,231.547 659.851,232.727 658.345,232.737C656.838,232.747 655.607,231.583 655.596,230.14Z" style="fill:rgb(142,151,117);"/>
        <path d="M714.966,243.716C714.502,243.71 714.492,243.46 714.622,243.253C714.808,242.958 715.208,242.864 715.516,243.042L715.578,243.147L715.606,243.099C715.757,242.889 716.195,243.649 716.198,244.043C716.2,244.389 715.787,245.16 713.36,245.404C711.38,245.603 707.743,245.626 701.148,245.246C695.557,244.836 691.658,244.04 688.299,242.938C680.896,240.509 676.283,236.535 661.222,231.914C659.801,231.437 659.051,229.943 659.549,228.581C660.047,227.219 661.606,226.501 663.028,226.978C677.926,232.421 682.379,236.584 689.663,239.487C692.727,240.709 696.297,241.72 701.478,242.474C709.939,243.846 713.345,244.009 714.647,243.786C714.784,243.763 714.938,243.724 714.966,243.716ZM714.971,243.716C715.169,243.72 715.447,243.679 715.83,243.573C715.83,243.573 714.488,244.518 714.921,244.173C715.052,244.069 714.976,243.738 714.971,243.716Z" style="fill:rgb(142,151,117);"/>
        <path d="M632.435,238.641C632.12,233.242 627.001,228.302 620.86,223.846C616.536,220.708 611.644,217.891 607.173,215.431C600.388,211.698 594.567,208.828 592.769,207.467C592.475,207.268 592.405,206.879 592.612,206.598C592.819,206.317 593.226,206.249 593.519,206.448C595.667,207.742 603.058,210.202 611.113,213.926C616.934,216.617 623.038,219.992 627.921,223.764C633.455,228.039 637.27,232.997 637.875,238.204C638.001,239.642 636.884,240.908 635.383,241.029C633.882,241.149 632.561,240.079 632.435,238.641Z" style="fill:rgb(142,151,117);"/>
        <path d="M638.244,241.233C643.583,247.498 646.332,255.833 647.369,264.366C648.127,270.603 648.052,276.917 647.507,282.482C646.596,291.79 644.517,298.952 643.902,300.206C643.765,300.524 643.385,300.676 643.053,300.545C642.72,300.414 642.562,300.049 642.699,299.731C643.169,298.467 644.276,291.374 644.413,282.322C644.494,276.949 644.248,270.895 643.174,264.947C641.809,257.386 639.152,250.004 634.102,244.64C633.121,243.545 633.252,241.893 634.395,240.952C635.538,240.012 637.263,240.138 638.244,241.233Z" style="fill:rgb(142,151,117);"/>
        <path d="M639.281,241.24C644.049,249.385 646.206,254.377 650.237,258.51C653.729,262.091 658.634,265 667.855,268.885C675.879,272.31 683.289,276.704 689.517,281.075C699.363,287.984 706.275,294.696 708.461,296.571C708.736,296.792 708.773,297.186 708.542,297.45C708.312,297.713 707.901,297.748 707.625,297.527C705.337,295.81 697.98,289.708 687.85,283.385C681.569,279.465 674.236,275.431 666.3,272.436C656.127,268.54 650.744,265.449 646.814,261.678C642.412,257.453 639.881,252.307 634.564,243.871C633.806,242.624 634.247,241.022 635.549,240.296C636.851,239.569 638.523,239.993 639.281,241.24Z" style="fill:rgb(142,151,117);"/>
        <path d="M637.767,238.335C649.865,230.449 663.963,223.47 678.083,217.568C693.146,211.271 708.212,206.19 720.767,202.344C726.566,200.615 731.824,199.144 736.311,197.954C745.965,195.395 752.01,194.103 752.01,194.103C752.358,194.019 752.712,194.221 752.801,194.555C752.889,194.888 752.677,195.228 752.329,195.312C752.329,195.312 747.663,196.577 740.001,198.957C735.011,200.507 728.757,202.524 721.697,204.988C707.11,209.939 689.117,216.766 671.761,225.125C660.874,230.368 650.237,236.205 640.893,242.623C639.658,243.449 637.955,243.16 637.092,241.977C636.23,240.794 636.532,239.162 637.767,238.335Z" style="fill:rgb(142,151,117);"/>
      </g>
    </g>
    <g transform="matrix(-0.562869, -0.490529, -0.490529, 0.562869, 718.790405, 425.563568)">
      <g transform="matrix(-0.753891,-0.657,-0.657,0.753891,1306.31,299.476)">
        <path d="M552.245,477.332C555.413,480.966 561.705,482.247 569.115,481.691C575.058,481.245 581.735,479.832 587.716,478.108C597.489,475.291 605.378,471.828 605.378,471.828C605.67,471.72 605.82,471.394 605.711,471.101C605.603,470.809 605.277,470.659 604.985,470.768C604.985,470.768 598.241,472.813 589.599,474.733C584.738,475.814 579.288,476.88 574.08,477.403C569.65,477.847 565.414,477.92 561.931,477.273C559.313,476.787 557.164,475.91 555.896,474.303C555.06,473.296 553.564,473.156 552.556,473.992C551.549,474.828 551.409,476.325 552.245,477.332Z" style="fill:rgb(142,151,117);"/>
      </g>
      <path d="M541.637,256.839C546.622,255.1 549.468,232.862 545.669,228.514C541.871,224.167 542.16,226.401 540.458,228.716C539.43,230.114 536.245,231.46 533.441,231.957C531.599,232.284 529.921,232.244 529.129,231.612C527.129,230.017 520.974,226.888 514.685,227.142C508.396,227.396 507.11,227.425 505.593,227.543C504.076,227.661 505.124,228.703 507.134,230.222C509.144,231.742 513.889,238.228 512.65,240.213C511.411,242.198 507.575,244.458 498.813,252.211C490.052,259.963 490.522,262.702 486.352,265.349C482.182,267.997 483.97,267.003 485.681,267.338C487.393,267.672 488.78,268.947 493.35,270.509C497.919,272.071 504.207,273.86 510.888,272.742C517.569,271.625 521.51,269.627 524.732,269.627C527.954,269.627 533.044,270.03 534.964,271.654C536.884,273.278 541.015,278.317 542.54,279.813C544.064,281.308 546.073,285.161 549.159,285.242C552.245,285.323 553.237,284.875 554.544,283.673C555.851,282.47 559.805,272.932 561.238,271.836C562.67,270.74 563.427,271.096 565.618,271.9C567.81,272.703 568.3,273.963 570.172,273.998C572.044,274.033 573.299,272.061 572.16,271.146C571.021,270.232 571.701,267.974 566.694,263.579C561.687,259.184 555.905,256.99 552.409,256.99C548.912,256.99 543.316,258.09 541.622,258.09C539.928,258.09 536.652,258.578 541.637,256.839Z" style="fill:url(#_logo-1);"/>
      <path d="M541.637,256.839C540.03,257.414 539.286,257.748 539.072,257.937C538.985,258.015 539.009,258.061 539.109,258.088C539.492,258.19 540.761,258.053 541.622,258.046C542.848,258.037 546.115,257.434 549.151,257.093C550.313,256.962 551.44,256.87 552.409,256.863C554.421,256.849 557.19,257.548 560.14,258.97C562.356,260.038 564.675,261.514 566.852,263.399C568.41,264.747 569.428,265.898 570.126,266.872C571.04,268.147 571.406,269.12 571.703,269.841C571.898,270.313 572.048,270.667 572.352,270.908C572.999,271.42 573.051,272.205 572.678,272.91C572.269,273.683 571.325,274.349 570.166,274.335C569.51,274.328 569.008,274.181 568.549,273.958C567.668,273.53 566.969,272.781 565.49,272.25C564.33,271.833 563.595,271.532 562.936,271.538C562.456,271.542 562.029,271.732 561.482,272.156C561.137,272.424 560.653,273.231 560.08,274.286C558.302,277.559 555.851,283.119 554.873,284.03C554.191,284.666 553.583,285.103 552.765,285.385C551.915,285.677 550.826,285.797 549.145,285.763C547.821,285.735 546.666,285.093 545.658,284.203C544.214,282.929 543.085,281.131 542.143,280.217C541.095,279.2 538.824,276.539 536.871,274.434C535.981,273.475 535.161,272.634 534.56,272.131C533.782,271.479 532.435,271.069 530.928,270.788C528.869,270.403 526.51,270.288 524.732,270.295C523.907,270.298 523.034,270.444 522.073,270.67C519.323,271.317 515.897,272.617 511.007,273.453C507.834,273.992 504.746,273.894 501.88,273.47C498.592,272.983 495.598,272.068 493.107,271.219C492.201,270.908 491.417,270.609 490.731,270.326C488.013,269.205 486.882,268.332 485.539,268.069C485.05,267.972 484.554,268.003 484.225,268.004C483.948,268.006 483.737,267.978 483.617,267.937C483.297,267.828 483.15,267.615 483.086,267.407C483.029,267.222 482.995,266.939 483.259,266.612C483.451,266.373 484.212,265.831 485.957,264.728C487.065,264.027 487.825,263.318 488.532,262.499C490.456,260.271 492.012,257.279 498.359,251.697C503.893,246.84 507.47,244.147 509.674,242.325C510.906,241.307 511.694,240.587 512.133,239.89C512.282,239.654 512.274,239.321 512.208,238.932C512.068,238.111 511.618,237.098 511.033,236.06C509.777,233.828 507.886,231.488 506.803,230.66C505.662,229.787 504.825,229.047 504.526,228.541C504.281,228.126 504.301,227.777 504.46,227.521C504.6,227.294 504.927,227.065 505.552,227.02C506.11,226.979 506.636,226.951 507.386,226.92C508.686,226.867 510.663,226.808 514.666,226.669C517.367,226.578 520.04,227.094 522.38,227.85C525.598,228.888 528.186,230.374 529.359,231.323C529.69,231.591 530.204,231.728 530.824,231.782C531.566,231.846 532.452,231.782 533.382,231.624C534.872,231.37 536.474,230.874 537.791,230.255C538.879,229.745 539.774,229.157 540.228,228.548C540.88,227.674 541.247,226.81 541.654,226.31C542.002,225.883 542.38,225.682 542.904,225.815C543.52,225.971 544.409,226.695 545.845,228.361C547.706,230.525 547.969,236.998 547.118,243.253C546.237,249.731 544.196,255.969 541.637,256.839L541.637,256.839ZM505.515,228.081C505.587,228.178 505.685,228.303 505.787,228.404C506.175,228.792 506.76,229.257 507.465,229.784C508.809,230.789 511.345,233.913 512.631,236.562C513.093,237.514 513.392,238.411 513.449,239.137C513.492,239.695 513.394,240.169 513.167,240.535C512.686,241.314 511.836,242.143 510.476,243.287C508.293,245.123 504.747,247.835 499.268,252.724C493.037,258.271 491.528,261.242 489.639,263.451C488.847,264.377 487.992,265.177 486.746,265.971C486.386,266.201 486.063,266.412 485.78,266.599L485.824,266.607C486.132,266.667 486.43,266.753 486.734,266.863C488.161,267.379 489.749,268.488 493.592,269.799C496.008,270.628 498.911,271.52 502.099,272.002C504.821,272.414 507.753,272.528 510.769,272.031C515.627,271.237 519.033,269.968 521.767,269.347C522.839,269.103 523.813,268.955 524.732,268.959C526.58,268.966 529.032,269.106 531.17,269.524C532.923,269.867 534.467,270.409 535.367,271.177C535.991,271.71 536.844,272.598 537.766,273.612C539.682,275.722 541.907,278.388 542.937,279.408C543.86,280.324 544.958,282.121 546.375,283.399C547.184,284.128 548.1,284.688 549.172,284.722C550.689,284.771 551.675,284.692 552.444,284.437C553.132,284.209 553.638,283.839 554.215,283.315C555.176,282.441 557.579,277.042 559.346,273.881C560.008,272.698 560.599,271.815 560.993,271.517C561.722,270.966 562.301,270.754 562.934,270.756C563.661,270.759 564.474,271.074 565.747,271.549C567.253,272.114 567.962,272.883 568.858,273.334C569.231,273.521 569.641,273.647 570.178,273.66C570.901,273.679 571.521,273.356 571.9,272.917C572.323,272.428 572.456,271.782 571.968,271.385C571.594,271.081 571.388,270.654 571.154,270.063C570.878,269.366 570.541,268.425 569.68,267.187C569.014,266.229 568.035,265.094 566.536,263.759C564.415,261.87 562.149,260.383 559.979,259.3C557.098,257.861 554.387,257.131 552.409,257.117C551.448,257.11 550.327,257.185 549.172,257.297C546.128,257.592 542.849,258.143 541.622,258.134C540.757,258.127 539.48,258.243 539.096,258.135C538.945,258.092 538.909,258.02 539.044,257.904C539.261,257.717 540.013,257.392 541.637,256.839L541.637,256.839C544.172,255.933 546.108,249.688 546.886,243.223C547.623,237.091 547.347,230.756 545.494,228.668C544.148,227.149 543.351,226.454 542.78,226.318C542.475,226.245 542.269,226.393 542.07,226.644C541.672,227.146 541.322,228.009 540.687,228.885C540.199,229.559 539.239,230.232 538.056,230.808C536.697,231.469 535.043,232.006 533.5,232.291C532.508,232.474 531.562,232.551 530.767,232.493C529.975,232.436 529.326,232.237 528.898,231.9C527.756,231.002 525.239,229.612 522.127,228.654C519.869,227.959 517.297,227.493 514.704,227.615C510.707,227.799 508.732,227.881 507.434,227.949C506.698,227.987 506.181,228.021 505.634,228.067C505.591,228.071 505.552,228.075 505.515,228.081Z" style="fill:rgb(250,242,218);"/>
      <g>
        <path d="M539.94,258.073C538.518,257.282 537.261,257.172 534.879,257.552C530.393,258.267 522.366,260.716 503.924,264.078C498.086,265.142 491.205,266.257 483.069,267.473C482.937,267.495 482.812,267.406 482.789,267.274C482.767,267.142 482.856,267.017 482.988,266.995C491.064,265.482 497.882,264.07 503.679,262.839C522.055,258.939 530.077,256.464 534.558,255.658C537.537,255.121 539.108,255.328 540.911,256.286C541.404,256.554 541.587,257.172 541.319,257.665C541.051,258.158 540.433,258.34 539.94,258.073Z" style="fill:rgb(142,151,117);"/>
        <path d="M539.682,257.873C532.542,249.992 526.336,246.778 516.957,238.046C514.219,235.497 511.241,232.46 507.872,228.727C507.78,228.63 507.784,228.476 507.88,228.384C507.977,228.292 508.131,228.296 508.223,228.393C511.761,231.929 514.903,234.762 517.726,237.186C527.516,245.591 533.753,248.763 541.169,256.486C541.552,256.896 541.529,257.54 541.119,257.923C540.709,258.305 540.065,258.283 539.682,257.873Z" style="fill:rgb(142,151,117);"/>
        <path d="M541.508,256.929C541.558,260.541 543.34,262.397 545.311,264.432C547.279,266.464 549.466,268.631 550.66,272.434C551.592,275.402 551.905,279.374 551.031,285.071C551.015,285.204 550.894,285.299 550.761,285.283C550.629,285.267 550.534,285.146 550.549,285.014C551.026,279.47 550.465,275.675 549.414,272.862C548.114,269.387 546.017,267.457 544.114,265.636C541.728,263.353 539.684,261.2 539.476,256.993C539.458,256.433 539.899,255.963 540.459,255.945C541.02,255.927 541.49,256.368 541.508,256.929Z" style="fill:rgb(142,151,117);"/>
        <path d="M541.558,255.838C549.282,261.396 549.1,258.797 556.081,262.496C557.866,263.442 560.115,264.784 563.046,266.793C564.936,268.089 567.099,269.671 569.627,271.58C569.737,271.657 569.764,271.808 569.687,271.918C569.61,272.027 569.459,272.054 569.349,271.977C566.702,270.259 564.429,268.861 562.473,267.686C559.477,265.886 557.22,264.652 555.426,263.797C552.583,262.442 550.947,262.041 549.481,261.703C547.197,261.178 545.311,260.789 540.4,257.509C539.938,257.19 539.823,256.556 540.143,256.095C540.463,255.634 541.096,255.519 541.558,255.838Z" style="fill:rgb(142,151,117);"/>
        <path d="M540.539,256.211C538.984,252.803 538.416,249.572 538.41,246.536C538.405,243.953 538.781,241.518 539.285,239.255C539.857,236.689 540.586,234.36 540.947,232.257C540.963,232.125 541.085,232.03 541.217,232.047C541.35,232.063 541.444,232.184 541.428,232.317C541.263,234.452 540.797,236.852 540.421,239.463C540.103,241.666 539.851,244.015 539.988,246.491C540.142,249.291 540.785,252.248 542.368,255.323C542.613,255.828 542.402,256.437 541.897,256.682C541.392,256.927 540.784,256.716 540.539,256.211Z" style="fill:rgb(142,151,117);"/>
        <path d="M529.981,258.696C528.449,260.949 526.154,262.573 524.708,264.713C523.845,265.988 523.281,267.441 523.492,269.451C523.516,269.583 523.429,269.709 523.297,269.734C523.166,269.758 523.039,269.671 523.015,269.539C522.427,267.334 522.783,265.592 523.573,264.043C524.736,261.76 526.936,259.991 528.25,257.629C528.544,257.152 529.171,257.003 529.649,257.297C530.126,257.591 530.275,258.218 529.981,258.696Z" style="fill:rgb(142,151,117);"/>
        <path d="M530.037,258.355C525.902,256.765 521.932,255.674 518.083,253.978C515.568,252.869 513.126,251.499 510.692,249.657C510.581,249.582 510.553,249.431 510.628,249.321C510.704,249.21 510.854,249.181 510.965,249.257C513.509,250.815 516.033,251.862 518.568,252.752C522.524,254.142 526.508,255.087 530.713,256.437C531.242,256.624 531.521,257.205 531.334,257.734C531.148,258.263 530.567,258.541 530.037,258.355Z" style="fill:rgb(142,151,117);"/>
      </g>
    </g>
  </g>
</svg>